<svg width="84" height="60" viewBox="0 0 84 60" fill="none" xmlns="http://www.w3.org/2000/svg">
<path fill-rule="evenodd" clip-rule="evenodd" d="M2.19526 8.65818C-0.731754 22.4714 -0.731754 36.7447 2.19526 50.5579C2.57985 51.9607 3.32294 53.2392 4.35145 54.2677C5.37996 55.2962 6.65846 56.0393 8.06122 56.4239C30.5339 60.1476 53.4661 60.1476 75.9388 56.4239C77.3415 56.0393 78.62 55.2962 79.6485 54.2677C80.677 53.2392 81.4201 51.9607 81.8047 50.5579C84.7318 36.7447 84.7318 22.4714 81.8047 8.65818C81.4201 7.25542 80.677 5.97692 79.6485 4.94841C78.62 3.9199 77.3415 3.17681 75.9388 2.79222C53.4661 -0.93074 30.5339 -0.93074 8.06122 2.79222C6.65846 3.17681 5.37996 3.9199 4.35145 4.94841C3.32294 5.97692 2.57985 7.25542 2.19526 8.65818ZM34.649 15.3231C34.0311 14.9524 33.2616 14.9427 32.6346 15.2977C32.0076 15.6527 31.62 16.3176 31.62 17.0381V42.178C31.62 42.8985 32.0076 43.5634 32.6346 43.9184C33.2616 44.2734 34.0311 44.2637 34.649 43.893L55.5988 31.323C56.2013 30.9616 56.5699 30.3106 56.5699 29.608C56.5699 28.9055 56.2013 28.2545 55.5988 27.8931L34.649 15.3231ZM35.62 38.6456V20.5705L50.6826 29.608L35.62 38.6456Z" fill="#BE123C"/>
<rect x="18" y="14" width="48" height="32" fill="#BE123C"/>
<path d="M62 36.6667V45.5556C62 46.7343 61.5317 47.8648 60.6983 48.6982C59.8648 49.5317 58.7343 50 57.5556 50H26.4444C25.2657 50 24.1352 49.5317 23.3017 48.6982C22.4683 47.8648 22 46.7343 22 45.5556V36.6667" stroke="white" stroke-width="4" stroke-linecap="round" stroke-linejoin="round"/>
<path d="M30.8889 25.5556L42 36.6667L53.1111 25.5556" stroke="white" stroke-width="4" stroke-linecap="round" stroke-linejoin="round"/>
<path d="M42 36.6667V10" stroke="white" stroke-width="4" stroke-linecap="round" stroke-linejoin="round"/>
</svg>
